<svg id="Layer_1" data-name="Layer 1" xmlns="http://www.w3.org/2000/svg" viewBox="0 0 24 18"><defs><style>.cls-1{fill:#a6a6a6;}</style></defs><title>Community</title><path class="cls-1" d="M996.46,135.28a4.42,4.42,0,0,1,1,.72,4.54,4.54,0,0,1,.73.94,4.65,4.65,0,0,1,.46,1.09,4.35,4.35,0,0,1,.16,1.19h-1.5a2.87,2.87,0,0,0-.24-1.16,3,3,0,0,0-1.6-1.6,2.94,2.94,0,0,0-2.33,0,3,3,0,0,0-1.59,1.6,2.87,2.87,0,0,0-.24,1.16,4.53,4.53,0,0,1-1.83,3.62,6.06,6.06,0,0,1,3.09,3.72,5.89,5.89,0,0,1,.23,1.66h-1.5a4.32,4.32,0,0,0-.36-1.75,4.55,4.55,0,0,0-2.4-2.4,4.44,4.44,0,0,0-3.49,0,4.55,4.55,0,0,0-2.4,2.4,4.32,4.32,0,0,0-.36,1.75h-1.5a5.89,5.89,0,0,1,.23-1.66,6,6,0,0,1,.67-1.5,6.11,6.11,0,0,1,2.43-2.22,4.53,4.53,0,0,1-1.83-3.62,2.87,2.87,0,0,0-.24-1.16,3,3,0,0,0-1.6-1.6,2.94,2.94,0,0,0-2.33,0,3,3,0,0,0-1.59,1.6,2.87,2.87,0,0,0-.24,1.16h-1.5a4.35,4.35,0,0,1,.16-1.19,4.65,4.65,0,0,1,.46-1.09,4.54,4.54,0,0,1,.73-.94,4.42,4.42,0,0,1,1-.72,3,3,0,0,1-.6-.95,3,3,0,0,1-.22-1.11,2.87,2.87,0,0,1,.24-1.16,3,3,0,0,1,1.59-1.6,2.94,2.94,0,0,1,2.33,0,3,3,0,0,1,1.6,1.6,2.87,2.87,0,0,1,.24,1.16,3,3,0,0,1-.22,1.11,3,3,0,0,1-.6.95,4.37,4.37,0,0,1,1.57,1.45,4.56,4.56,0,0,1,1.62-1.48,4.47,4.47,0,0,1,4.25,0,4.56,4.56,0,0,1,1.62,1.48,4.37,4.37,0,0,1,1.57-1.45,3,3,0,0,1-.6-.95,3,3,0,0,1-.22-1.11,2.87,2.87,0,0,1,.24-1.16,3,3,0,0,1,1.59-1.6,2.94,2.94,0,0,1,2.33,0,3,3,0,0,1,1.6,1.6,2.87,2.87,0,0,1,.24,1.16,3,3,0,0,1-.22,1.11A3,3,0,0,1,996.46,135.28Zm-18.68-2.06a1.45,1.45,0,0,0,.12.59,1.53,1.53,0,0,0,.8.8,1.52,1.52,0,0,0,1.17,0,1.53,1.53,0,0,0,.8-.8,1.52,1.52,0,0,0,0-1.17,1.53,1.53,0,0,0-.8-.8,1.52,1.52,0,0,0-1.17,0,1.53,1.53,0,0,0-.8.8A1.45,1.45,0,0,0,977.78,133.22Zm9,9a2.87,2.87,0,0,0,1.16-.24,3,3,0,0,0,1.6-1.59,2.94,2.94,0,0,0,0-2.33,3,3,0,0,0-1.6-1.6,2.94,2.94,0,0,0-2.33,0,3,3,0,0,0-1.59,1.6,2.94,2.94,0,0,0,0,2.33,3.06,3.06,0,0,0,1.59,1.59A2.86,2.86,0,0,0,986.78,142.22Zm6-9a1.45,1.45,0,0,0,.12.59,1.53,1.53,0,0,0,.8.8,1.52,1.52,0,0,0,1.17,0,1.53,1.53,0,0,0,.8-.8,1.52,1.52,0,0,0,0-1.17,1.53,1.53,0,0,0-.8-.8,1.52,1.52,0,0,0-1.17,0,1.53,1.53,0,0,0-.8.8A1.45,1.45,0,0,0,992.78,133.22Z" transform="translate(-974.78 -130.22)"/></svg>