<?xml version="1.0" encoding="UTF-8"?>
<svg width="45px" height="45px" viewBox="0 0 45 45" version="1.1" xmlns="http://www.w3.org/2000/svg" xmlns:xlink="http://www.w3.org/1999/xlink">
    <!-- Generator: Sketch 46.1 (44463) - http://www.bohemiancoding.com/sketch -->
    <title></title>
    <desc>Created with Sketch.</desc>
    <defs></defs>
    <g id="Page-1" stroke="none" stroke-width="1" fill="none" fill-rule="evenodd">
        <g id="Welcome-Screen-1" transform="translate(-898.000000, -291.000000)" fill="#1A7D9F">
            <g id="Page-1-Copy-2" transform="translate(898.000000, 289.000000)">
                <path d="M36,33.6875 L22.5,40.4375 L9,33.6875 L9,15.3359375 L22.5,8.5625 L36,15.3359375 L36,33.6875 Z M22.5,11.9375 L13.8515625,16.25 L22.5,20.5625 L31.1484375,16.25 L22.5,11.9375 Z M12,31.8125 L21,36.3359375 L21,23.1875 L12,18.6640625 L12,31.8125 Z M33,31.8125 L33,18.6640625 L24,23.1875 L24,36.3359375 L33,31.8125 Z M3,14 L0,14 L0,2 L12,2 L12,5 L3,5 L3,14 Z M3,44 L12,44 L12,47 L0,47 L0,35 L3,35 L3,44 Z M45,2 L45,14 L42,14 L42,5 L33,5 L33,2 L45,2 Z M42,35 L45,35 L45,47 L33,47 L33,44 L42,44 L42,35 Z" id=""></path>
            </g>
        </g>
    </g>
</svg>