<svg id="Layer_1" data-name="Layer 1" xmlns="http://www.w3.org/2000/svg" viewBox="0 0 23.99 24"><defs><style>.cls-1{fill:#a6a6a6;}</style></defs><title>Contact Us</title><path class="cls-1" d="M993.61,141.44a2.6,2.6,0,0,1,1,.19,2.52,2.52,0,0,1,.84.56l2.58,2.58a2.52,2.52,0,0,1,.56.84,2.63,2.63,0,0,1,0,2,2.52,2.52,0,0,1-.56.84q-.67.68-1.22,1.2a6.84,6.84,0,0,1-1.14.88,4.71,4.71,0,0,1-1.3.54,7.08,7.08,0,0,1-1.72.18,10.6,10.6,0,0,1-3-.46,16.71,16.71,0,0,1-3.08-1.27,22.06,22.06,0,0,1-3-1.92,26,26,0,0,1-2.78-2.43,26.68,26.68,0,0,1-2.41-2.79,21.85,21.85,0,0,1-1.9-3,16.83,16.83,0,0,1-1.24-3.05,10.51,10.51,0,0,1-.45-3,7,7,0,0,1,.18-1.72,4.81,4.81,0,0,1,.54-1.3,6.53,6.53,0,0,1,.88-1.14q.52-.54,1.2-1.21a2.61,2.61,0,0,1,.83-.56,2.58,2.58,0,0,1,2,0,2.59,2.59,0,0,1,.84.56l2.58,2.58a2.52,2.52,0,0,1,.56.84,2.6,2.6,0,0,1,.19,1,2.29,2.29,0,0,1-.18.92,3.32,3.32,0,0,1-.43.73,4.34,4.34,0,0,1-.57.6q-.31.27-.57.53a3.45,3.45,0,0,0-.43.52,1,1,0,0,0-.18.57,1,1,0,0,0,.32.76l6.46,6.46a1,1,0,0,0,.76.32,1,1,0,0,0,.57-.18,3.45,3.45,0,0,0,.52-.43q.26-.26.53-.57a4.34,4.34,0,0,1,.6-.57,3.32,3.32,0,0,1,.73-.43A2.29,2.29,0,0,1,993.61,141.44Zm-1,8.29a5.35,5.35,0,0,0,1.41-.16,3.65,3.65,0,0,0,1-.46,5.3,5.3,0,0,0,.89-.74l1-1a1,1,0,0,0,.32-.76,1,1,0,0,0-.17-.5,4.4,4.4,0,0,0-.44-.6q-.27-.32-.6-.65l-.66-.63-.6-.55-.43-.4a1.05,1.05,0,0,0-.77-.32,1,1,0,0,0-.56.18,3.62,3.62,0,0,0-.52.43q-.26.26-.53.57a4.62,4.62,0,0,1-.6.57,3.32,3.32,0,0,1-.73.43,2.29,2.29,0,0,1-.92.18,2.6,2.6,0,0,1-1-.19,2.52,2.52,0,0,1-.84-.56l-6.46-6.46a2.52,2.52,0,0,1-.56-.84,2.6,2.6,0,0,1-.19-1,2.29,2.29,0,0,1,.18-.92,3.32,3.32,0,0,1,.43-.73,4.62,4.62,0,0,1,.57-.6q.31-.28.57-.53a3.62,3.62,0,0,0,.43-.52,1,1,0,0,0,.18-.56,1.05,1.05,0,0,0-.32-.77l-.4-.43-.55-.6-.63-.66q-.33-.33-.65-.6a4.4,4.4,0,0,0-.6-.44,1,1,0,0,0-.5-.17,1,1,0,0,0-.76.32l-1,1a6,6,0,0,0-.75.89,3.46,3.46,0,0,0-.47,1,5.3,5.3,0,0,0-.16,1.4,9.21,9.21,0,0,0,.43,2.71,15.23,15.23,0,0,0,1.18,2.79,21.24,21.24,0,0,0,1.79,2.75,24.49,24.49,0,0,0,2.25,2.56,25.19,25.19,0,0,0,2.57,2.23,21.23,21.23,0,0,0,2.74,1.76,15.12,15.12,0,0,0,2.77,1.16A9.13,9.13,0,0,0,992.64,149.72Z" transform="translate(-974.78 -127.22)"/></svg>