<?xml version="1.0" encoding="UTF-8"?>
<svg width="42px" height="42px" viewBox="0 0 42 42" version="1.1" xmlns="http://www.w3.org/2000/svg" xmlns:xlink="http://www.w3.org/1999/xlink">
    <!-- Generator: Sketch 46.1 (44463) - http://www.bohemiancoding.com/sketch -->
    <title></title>
    <desc>Created with Sketch.</desc>
    <defs></defs>
    <g id="Page-1" stroke="none" stroke-width="1" fill="none" fill-rule="evenodd">
        <g id="Welcome-Screen-1" transform="translate(-901.000000, -440.000000)" fill="#1A7D9F">
            <g id="Page-1-Copy-3" transform="translate(898.000000, 437.000000)">
                <path d="M39,33 C39.8281291,33 40.6054651,33.1562484 41.3320312,33.46875 C42.0585974,33.7812516 42.6953098,34.2109348 43.2421875,34.7578125 C43.7890652,35.3046902 44.2187484,35.9414026 44.53125,36.6679688 C44.8437516,37.3945349 45,38.1718709 45,39 C45,39.8281291 44.8437516,40.6054651 44.53125,41.3320312 C44.2187484,42.0585974 43.7890652,42.6953098 43.2421875,43.2421875 C42.6953098,43.7890652 42.0585974,44.2187484 41.3320312,44.53125 C40.6054651,44.8437516 39.8281291,45 39,45 C38.1718709,45 37.3945349,44.8437516 36.6679688,44.53125 C35.9414026,44.2187484 35.3046902,43.7890652 34.7578125,43.2421875 C34.2109348,42.6953098 33.7812516,42.0585974 33.46875,41.3320312 C33.1562484,40.6054651 33,39.8281291 33,39 C33,37.8906195 33.2734348,36.8750046 33.8203125,35.953125 L27.046875,29.1796875 C26.1249954,29.7265652 25.1093805,30 24,30 C22.8906195,30 21.8750046,29.7265652 20.953125,29.1796875 L14.1796875,35.953125 C14.7265652,36.8750046 15,37.8906195 15,39 C15,39.8281291 14.8437516,40.6054651 14.53125,41.3320312 C14.2187484,42.0585974 13.7890652,42.6953098 13.2421875,43.2421875 C12.6953098,43.7890652 12.0585974,44.2187484 11.3320312,44.53125 C10.6054651,44.8437516 9.82812914,45 9,45 C8.17187086,45 7.39453488,44.8437516 6.66796875,44.53125 C5.94140262,44.2187484 5.30469023,43.7890652 4.7578125,43.2421875 C4.21093477,42.6953098 3.78125156,42.0585974 3.46875,41.3320312 C3.15624844,40.6054651 3,39.8281291 3,39 C3,38.1718709 3.15624844,37.3945349 3.46875,36.6679688 C3.78125156,35.9414026 4.21093477,35.3046902 4.7578125,34.7578125 C5.30469023,34.2109348 5.94140262,33.7812516 6.66796875,33.46875 C7.39453488,33.1562484 8.17187086,33 9,33 C10.1093805,33 11.1249954,33.2734348 12.046875,33.8203125 L18.8203125,27.046875 C18.2734348,26.1249954 18,25.1093805 18,24 C18,22.8906195 18.2734348,21.8750046 18.8203125,20.953125 L12.046875,14.1796875 C11.1249954,14.7265652 10.1093805,15 9,15 C8.17187086,15 7.39453488,14.8437516 6.66796875,14.53125 C5.94140262,14.2187484 5.30469023,13.7890652 4.7578125,13.2421875 C4.21093477,12.6953098 3.78125156,12.0585974 3.46875,11.3320312 C3.15624844,10.6054651 3,9.82812914 3,9 C3,8.17187086 3.15624844,7.39453488 3.46875,6.66796875 C3.78125156,5.94140262 4.21093477,5.30469023 4.7578125,4.7578125 C5.30469023,4.21093477 5.94140262,3.78125156 6.66796875,3.46875 C7.39453488,3.15624844 8.17187086,3 9,3 C9.82812914,3 10.6054651,3.15624844 11.3320312,3.46875 C12.0585974,3.78125156 12.6953098,4.21093477 13.2421875,4.7578125 C13.7890652,5.30469023 14.2187484,5.94140262 14.53125,6.66796875 C14.8437516,7.39453488 15,8.17187086 15,9 C15,10.1093805 14.7265652,11.1249954 14.1796875,12.046875 L20.953125,18.8203125 C21.8750046,18.2734348 22.8906195,18 24,18 C25.1093805,18 26.1249954,18.2734348 27.046875,18.8203125 L33.8203125,12.046875 C33.2734348,11.1249954 33,10.1093805 33,9 C33,8.17187086 33.1562484,7.39453488 33.46875,6.66796875 C33.7812516,5.94140262 34.2109348,5.30469023 34.7578125,4.7578125 C35.3046902,4.21093477 35.9414026,3.78125156 36.6679688,3.46875 C37.3945349,3.15624844 38.1718709,3 39,3 C39.8281291,3 40.6054651,3.15624844 41.3320312,3.46875 C42.0585974,3.78125156 42.6953098,4.21093477 43.2421875,4.7578125 C43.7890652,5.30469023 44.2187484,5.94140262 44.53125,6.66796875 C44.8437516,7.39453488 45,8.17187086 45,9 C45,9.82812914 44.8437516,10.6054651 44.53125,11.3320312 C44.2187484,12.0585974 43.7890652,12.6953098 43.2421875,13.2421875 C42.6953098,13.7890652 42.0585974,14.2187484 41.3320312,14.53125 C40.6054651,14.8437516 39.8281291,15 39,15 C37.8906195,15 36.8750046,14.7265652 35.953125,14.1796875 L29.1796875,20.953125 C29.7265652,21.8750046 30,22.8906195 30,24 C30,25.1093805 29.7265652,26.1249954 29.1796875,27.046875 L35.953125,33.8203125 C36.8750046,33.2734348 37.8906195,33 39,33 Z M39,6 C38.5781229,6 38.1875018,6.07812422 37.828125,6.234375 C37.4687482,6.39062578 37.1523451,6.60546738 36.8789062,6.87890625 C36.6054674,7.15234512 36.3906258,7.4687482 36.234375,7.828125 C36.0781242,8.1875018 36,8.57812289 36,9 C36,9.42187711 36.0781242,9.8124982 36.234375,10.171875 C36.3906258,10.5312518 36.6054674,10.8476549 36.8789062,11.1210938 C37.1523451,11.3945326 37.4687482,11.6093742 37.828125,11.765625 C38.1875018,11.9218758 38.5781229,12 39,12 C39.4218771,12 39.8124982,11.9218758 40.171875,11.765625 C40.5312518,11.6093742 40.8476549,11.3945326 41.1210938,11.1210938 C41.3945326,10.8476549 41.6093742,10.5312518 41.765625,10.171875 C41.9218758,9.8124982 42,9.42187711 42,9 C42,8.57812289 41.9218758,8.1875018 41.765625,7.828125 C41.6093742,7.4687482 41.3945326,7.15234512 41.1210938,6.87890625 C40.8476549,6.60546738 40.5312518,6.39062578 40.171875,6.234375 C39.8124982,6.07812422 39.4218771,6 39,6 Z M6,9 C6,9.42187711 6.07812422,9.8124982 6.234375,10.171875 C6.39062578,10.5312518 6.60546738,10.8476549 6.87890625,11.1210938 C7.15234512,11.3945326 7.4687482,11.6093742 7.828125,11.765625 C8.1875018,11.9218758 8.57812289,12 9,12 C9.42187711,12 9.8124982,11.9218758 10.171875,11.765625 C10.5312518,11.6093742 10.8476549,11.3945326 11.1210938,11.1210938 C11.3945326,10.8476549 11.6093742,10.5312518 11.765625,10.171875 C11.9218758,9.8124982 12,9.42187711 12,9 C12,8.57812289 11.9218758,8.1875018 11.765625,7.828125 C11.6093742,7.4687482 11.3945326,7.15234512 11.1210938,6.87890625 C10.8476549,6.60546738 10.5312518,6.39062578 10.171875,6.234375 C9.8124982,6.07812422 9.42187711,6 9,6 C8.57812289,6 8.1875018,6.07812422 7.828125,6.234375 C7.4687482,6.39062578 7.15234512,6.60546738 6.87890625,6.87890625 C6.60546738,7.15234512 6.39062578,7.4687482 6.234375,7.828125 C6.07812422,8.1875018 6,8.57812289 6,9 Z M9,42 C9.42187711,42 9.8124982,41.9218758 10.171875,41.765625 C10.5312518,41.6093742 10.8476549,41.3945326 11.1210938,41.1210938 C11.3945326,40.8476549 11.6093742,40.5312518 11.765625,40.171875 C11.9218758,39.8124982 12,39.4218771 12,39 C12,38.5781229 11.9218758,38.1875018 11.765625,37.828125 C11.6093742,37.4687482 11.3945326,37.1523451 11.1210938,36.8789062 C10.8476549,36.6054674 10.5312518,36.3906258 10.171875,36.234375 C9.8124982,36.0781242 9.42187711,36 9,36 C8.57812289,36 8.1875018,36.0781242 7.828125,36.234375 C7.4687482,36.3906258 7.15234512,36.6054674 6.87890625,36.8789062 C6.60546738,37.1523451 6.39062578,37.4687482 6.234375,37.828125 C6.07812422,38.1875018 6,38.5781229 6,39 C6,39.4218771 6.07812422,39.8124982 6.234375,40.171875 C6.39062578,40.5312518 6.60546738,40.8476549 6.87890625,41.1210938 C7.15234512,41.3945326 7.4687482,41.6093742 7.828125,41.765625 C8.1875018,41.9218758 8.57812289,42 9,42 Z M24,27 C24.4218771,27 24.8124982,26.9218758 25.171875,26.765625 C25.5312518,26.6093742 25.8476549,26.3945326 26.1210938,26.1210938 C26.3945326,25.8476549 26.6093742,25.5312518 26.765625,25.171875 C26.9218758,24.8124982 27,24.4218771 27,24 C27,23.5781229 26.9218758,23.1875018 26.765625,22.828125 C26.6093742,22.4687482 26.3945326,22.1523451 26.1210938,21.8789062 C25.8476549,21.6054674 25.5312518,21.3906258 25.171875,21.234375 C24.8124982,21.0781242 24.4218771,21 24,21 C23.5781229,21 23.1875018,21.0781242 22.828125,21.234375 C22.4687482,21.3906258 22.1523451,21.6054674 21.8789062,21.8789062 C21.6054674,22.1523451 21.3906258,22.4687482 21.234375,22.828125 C21.0781242,23.1875018 21,23.5781229 21,24 C21,24.4218771 21.0781242,24.8124982 21.234375,25.171875 C21.3906258,25.5312518 21.6054674,25.8476549 21.8789062,26.1210938 C22.1523451,26.3945326 22.4687482,26.6093742 22.828125,26.765625 C23.1875018,26.9218758 23.5781229,27 24,27 Z M39,42 C39.4218771,42 39.8124982,41.9218758 40.171875,41.765625 C40.5312518,41.6093742 40.8476549,41.3945326 41.1210938,41.1210938 C41.3945326,40.8476549 41.6093742,40.5312518 41.765625,40.171875 C41.9218758,39.8124982 42,39.4218771 42,39 C42,38.5781229 41.9218758,38.1875018 41.765625,37.828125 C41.6093742,37.4687482 41.3945326,37.1523451 41.1210938,36.8789062 C40.8476549,36.6054674 40.5312518,36.3906258 40.171875,36.234375 C39.8124982,36.0781242 39.4218771,36 39,36 C38.5781229,36 38.1875018,36.0781242 37.828125,36.234375 C37.4687482,36.3906258 37.1523451,36.6054674 36.8789062,36.8789062 C36.6054674,37.1523451 36.3906258,37.4687482 36.234375,37.828125 C36.0781242,38.1875018 36,38.5781229 36,39 C36,39.4218771 36.0781242,39.8124982 36.234375,40.171875 C36.3906258,40.5312518 36.6054674,40.8476549 36.8789062,41.1210938 C37.1523451,41.3945326 37.4687482,41.6093742 37.828125,41.765625 C38.1875018,41.9218758 38.5781229,42 39,42 Z" id=""></path>
            </g>
        </g>
    </g>
</svg>