<?xml version="1.0" encoding="UTF-8"?>
<svg width="16px" height="16px" viewBox="0 0 16 16" version="1.1" xmlns="http://www.w3.org/2000/svg" xmlns:xlink="http://www.w3.org/1999/xlink">
    <!-- Generator: Sketch 46.2 (44496) - http://www.bohemiancoding.com/sketch -->
    <title>Document</title>
    <desc>Created with Sketch.</desc>
    <defs></defs>
    <g id="Page-1" stroke="none" stroke-width="1" fill="none" fill-rule="evenodd">
        <g id="Document">
            <rect id="Rectangle" x="0" y="0" width="16" height="16"></rect>
            <path style="fill:#a6a6a6;" d="M12.4023438,1.88183594 L13.25,1.88183594 L13.25,15 L2.75,15 L2.75,1.88183594 L3.61132812,1.88183594 L3.61132812,1 L4.48632812,1 L4.48632812,1.88183594 L6.25,1.88183594 L6.25,1 L7.125,1 L7.125,1.88183594 L8.88867188,1.88183594 L8.88867188,1 L9.76367188,1 L9.76367188,1.88183594 L11.5273438,1.88183594 L11.5273438,1 L12.4023438,1 L12.4023438,1.88183594 Z M12.375,14.125 L12.375,2.75683594 L3.625,2.75683594 L3.625,14.125 L12.375,14.125 Z M10.625,4.50683594 L10.625,5.38183594 L5.375,5.38183594 L5.375,4.50683594 L10.625,4.50683594 Z M5.375,12.3886719 L5.375,11.5136719 L10.625,11.5136719 L10.625,12.3886719 L5.375,12.3886719 Z M5.375,8.88183594 L5.375,8.00683594 L10.625,8.00683594 L10.625,8.88183594 L5.375,8.88183594 Z" id="" fill="#000000"></path>
        </g>
    </g>
</svg>