<svg id="Layer_1" data-name="Layer 1" xmlns="http://www.w3.org/2000/svg" viewBox="0 0 22.5 21"><defs><style>.cls-1{fill:#a6a6a6;}</style></defs><title>Getting Started</title><path class="cls-1" d="M20.25,7.5a2.21,2.21,0,0,1,.88.18,2.24,2.24,0,0,1,1.2,1.2,2.29,2.29,0,0,1,0,1.76,2.24,2.24,0,0,1-1.2,1.2,2.21,2.21,0,0,1-.88.18H16.5a.72.72,0,0,1-.53-.22l-1.72-1.71-1.2,1.18,2.47,2.47a.72.72,0,0,1,.22.53v4.5a2.21,2.21,0,0,1-.18.88,2.24,2.24,0,0,1-1.2,1.2,2.29,2.29,0,0,1-1.76,0,2.24,2.24,0,0,1-1.2-1.2,2.21,2.21,0,0,1-.18-.88V16.07l-1.5-1.5L8,16.28a.72.72,0,0,1-.53.22H2.25a2.21,2.21,0,0,1-.88-.18,2.24,2.24,0,0,1-1.2-1.2,2.29,2.29,0,0,1,0-1.76,2.24,2.24,0,0,1,1.2-1.2A2.21,2.21,0,0,1,2.25,12H5.68l.94-.93a2.25,2.25,0,0,1-1-.83A2.19,2.19,0,0,1,5.25,9V4.5a1.45,1.45,0,0,1,.12-.59,1.53,1.53,0,0,1,.8-.8A1.45,1.45,0,0,1,6.75,3h6A2.92,2.92,0,0,1,13,1.83a3,3,0,0,1,1.6-1.6,3,3,0,0,1,2.33,0,3,3,0,0,1,1.6,1.6A2.92,2.92,0,0,1,18.75,3a2.93,2.93,0,0,1-.15.94,3,3,0,0,1-.43.83,3.07,3.07,0,0,1-.66.66,3,3,0,0,1-.85.43L18.32,7.5Zm0,3A.76.76,0,0,0,21,9.75a.64.64,0,0,0-.21-.54A1.12,1.12,0,0,0,20.25,9a3.49,3.49,0,0,0-.74,0l-.8,0A4.32,4.32,0,0,1,18,9a.86.86,0,0,1-.52-.23L13.18,4.5H6.75V9a.76.76,0,0,0,.75.75.62.62,0,0,0,.59-.28,1.56,1.56,0,0,0,.18-.7,5.93,5.93,0,0,0,0-.9,5.93,5.93,0,0,1,0-.9,1.56,1.56,0,0,1,.18-.7A.62.62,0,0,1,9,6h2.25a.75.75,0,0,1,0,1.5H9.75V9.75a.72.72,0,0,1-.22.53l-3,3A.72.72,0,0,1,6,13.5H2.25a.72.72,0,0,0-.53.22.74.74,0,0,0,0,1.05.72.72,0,0,0,.53.22H7.18l2-2a.74.74,0,0,1,1.05,0l2.25,2.25a.72.72,0,0,1,.22.53v3a.75.75,0,0,0,1.5,0V14.57l-2.78-2.79a.74.74,0,0,1,0-1.05l2.25-2.25a.74.74,0,0,1,1.05,0l2,2Zm-4.5-9a1.45,1.45,0,0,0-.59.12,1.53,1.53,0,0,0-.8.8,1.52,1.52,0,0,0,0,1.17,1.53,1.53,0,0,0,.8.8,1.45,1.45,0,0,0,.59.12,1.43,1.43,0,0,0,.55-.11,1.62,1.62,0,0,0,.48-.3,1.57,1.57,0,0,0,.34-.45,1.18,1.18,0,0,0,.13-.54,1.82,1.82,0,0,0-.11-.62,1.54,1.54,0,0,0-.3-.51,1.35,1.35,0,0,0-.47-.34A1.53,1.53,0,0,0,15.75,1.5Z"/></svg>