<svg id="Layer_1" data-name="Layer 1" xmlns="http://www.w3.org/2000/svg" viewBox="0 0 71 45.5"><title>MMA</title><polygon points="51.45 16.65 51.45 33.68 37.8 40.53 24.15 33.68 24.15 16.65 37.8 9.81 51.45 16.65" style="fill:#1a7d9f"/><polygon points="26.25 32.39 36.75 37.65 36.75 24.25 26.25 18.98 26.25 32.39" style="fill:#fff"/><polygon points="37.8 12.17 27.55 17.29 37.8 22.41 48.05 17.29 37.8 12.17" style="fill:#fff"/><polygon points="49.35 32.39 49.35 18.98 38.85 24.25 38.85 37.65 49.35 32.39" style="fill:#fff"/><path d="M231.41,203.09a12.63,12.63,0,0,1,5,1,13.1,13.1,0,0,1,4.08,2.71,12.7,12.7,0,0,1,2.76,4,12.89,12.89,0,0,1,0,10,12.85,12.85,0,0,1-6.81,6.79,12.43,12.43,0,0,1-4.95,1H193.26a16.66,16.66,0,0,1-6.62-1.33,16.92,16.92,0,0,1-9-9,17.18,17.18,0,0,1,0-13.25,16.92,16.92,0,0,1,9-9,16.67,16.67,0,0,1,6.62-1.33,16.37,16.37,0,0,1,3.09.3,19.88,19.88,0,0,1,3.07-3.7,18.46,18.46,0,0,1,3.8-2.77,18.82,18.82,0,0,1,4.38-1.73,19.11,19.11,0,0,1,4.78-.6,18.72,18.72,0,0,1,7,1.29,19.05,19.05,0,0,1,5.79,3.57,19.31,19.31,0,0,1,4.17,5.4A19.75,19.75,0,0,1,231.41,203.09Z" transform="translate(-174.76 -184.59)" style="fill:none;stroke:#1a7d9f;stroke-miterlimit:10;stroke-width:3px"/></svg>