<?xml version="1.0" encoding="UTF-8"?>
<svg width="56px" height="56px" viewBox="0 0 56 56" version="1.1" xmlns="http://www.w3.org/2000/svg" xmlns:xlink="http://www.w3.org/1999/xlink">
    <!-- Generator: Sketch 46.1 (44463) - http://www.bohemiancoding.com/sketch -->
    <title></title>
    <desc>Created with Sketch.</desc>
    <defs></defs>
    <g id="Page-1" stroke="none" stroke-width="1" fill="none" fill-rule="evenodd">
        <g id="Screenshot" transform="translate(-578.000000, -459.000000)" fill="#1A7D9F">
            <path d="M630.139648,500.336426 C630.254883,500.912601 630.3125,501.498369 630.3125,502.09375 C630.3125,502.689131 630.254883,503.274899 630.139648,503.851074 L633.711914,505.320312 L632.300293,508.748535 L628.728027,507.250488 C628.055823,508.229985 627.229985,509.055823 626.250488,509.728027 L627.748535,513.300293 L624.320312,514.711914 L622.851074,511.139648 C622.274899,511.254883 621.689131,511.3125 621.09375,511.3125 C620.498369,511.3125 619.912601,511.254883 619.336426,511.139648 L617.867188,514.711914 L614.438965,513.300293 L615.937012,509.728027 C614.957515,509.055823 614.131677,508.229985 613.459473,507.250488 L609.887207,508.748535 L608.475586,505.320312 L612.047852,503.851074 C611.932617,503.274899 611.875,502.689131 611.875,502.09375 C611.875,501.498369 611.932617,500.912601 612.047852,500.336426 L608.475586,498.867188 L609.887207,495.438965 L613.459473,496.937012 C614.131677,495.957515 614.957515,495.131677 615.937012,494.459473 L614.438965,490.887207 L617.867188,489.475586 L619.336426,493.047852 C619.912601,492.932617 620.498369,492.875 621.09375,492.875 C621.689131,492.875 622.274899,492.932617 622.851074,493.047852 L624.320312,489.475586 L627.748535,490.887207 L626.250488,494.459473 C627.229985,495.131677 628.055823,495.957515 628.728027,496.937012 L632.300293,495.438965 L633.711914,498.867188 L630.139648,500.336426 Z M621.09375,507.625 C621.861983,507.625 622.582191,507.480958 623.254395,507.192871 C623.926598,506.904784 624.512367,506.51107 625.011719,506.011719 C625.51107,505.512367 625.904784,504.926598 626.192871,504.254395 C626.480958,503.582191 626.625,502.861983 626.625,502.09375 C626.625,501.325517 626.480958,500.605309 626.192871,499.933105 C625.904784,499.260902 625.51107,498.675133 625.011719,498.175781 C624.512367,497.67643 623.926598,497.282716 623.254395,496.994629 C622.582191,496.706542 621.861983,496.5625 621.09375,496.5625 C620.325517,496.5625 619.605309,496.706542 618.933105,496.994629 C618.260902,497.282716 617.675133,497.67643 617.175781,498.175781 C616.67643,498.675133 616.282716,499.260902 615.994629,499.933105 C615.706542,500.605309 615.5625,501.325517 615.5625,502.09375 C615.5625,502.861983 615.706542,503.582191 615.994629,504.254395 C616.282716,504.926598 616.67643,505.512367 617.175781,506.011719 C617.675133,506.51107 618.260902,506.904784 618.933105,507.192871 C619.605309,507.480958 620.325517,507.625 621.09375,507.625 Z M606.372559,509.67041 C605.757972,509.977703 605.138594,510.284992 604.514404,510.592285 C603.890215,510.899578 603.270836,511.21647 602.65625,511.542969 L578.6875,499.558594 L578.6875,471.441406 L602.65625,459.457031 L626.625,471.441406 L626.625,486.421875 L622.9375,484.89502 L622.9375,475.589844 L604.5,484.808594 L604.5,506.472656 L605.018555,506.213379 L606.372559,509.67041 Z M602.65625,463.605469 L584.650879,472.59375 L602.65625,481.582031 L620.661621,472.59375 L602.65625,463.605469 Z M582.375,497.253906 L600.8125,506.472656 L600.8125,484.808594 L582.375,475.589844 L582.375,497.253906 Z" id=""></path>
        </g>
    </g>
</svg>