<svg id="Layer_1" data-name="Layer 1" xmlns="http://www.w3.org/2000/svg" viewBox="0 0 142.26 88.91"><title>ModelManagementAcct</title><path d="M161.67,90.65a26.42,26.42,0,0,1,10.45,2.08,27.39,27.39,0,0,1,8.54,5.66,26.57,26.57,0,0,1,5.77,8.44,27,27,0,0,1,0,20.87,26.88,26.88,0,0,1-14.24,14.2A26,26,0,0,1,161.88,144h-80A34.85,34.85,0,0,1,68,141.22a35.4,35.4,0,0,1-18.93-18.93,35.95,35.95,0,0,1,0-27.71A35.4,35.4,0,0,1,68,75.65a34.87,34.87,0,0,1,13.86-2.78,34.25,34.25,0,0,1,6.46.63,41.58,41.58,0,0,1,6.43-7.75,38.63,38.63,0,0,1,8-5.8,39.38,39.38,0,0,1,9.17-3.61,40,40,0,0,1,10-1.25,39.16,39.16,0,0,1,14.55,2.71,39.86,39.86,0,0,1,12.12,7.47,40.4,40.4,0,0,1,8.72,11.29A41.32,41.32,0,0,1,161.67,90.65Zm-64,.82v27.46l19.53,9.71V101.23Zm41.55-5.24-18.77-9.36-18.77,9.36,18.77,9.36Zm-15.51,42.41,19.53-9.71V91.47l-19.53,9.76Z" transform="translate(-46.3 -55.09)" style="fill:#1e1e1e"/></svg>