<svg width="48" height="41" version="1.1" id="Layer_1" xmlns="http://www.w3.org/2000/svg" xmlns:xlink="http://www.w3.org/1999/xlink" x="0px" y="0px"
	 viewBox="0 0 48 41" style="enable-background:new 0 0 48 41;" xml:space="preserve">
<style type="text/css">
	.st0{fill:#1A7D9F;}
</style>
<rect x="8" y="14.3" class="st0" width="7.4" height="19.6"/>
<rect x="8" y="14.3" class="st0" width="7.4" height="19.6"/>
<rect x="8" y="38" class="st0" width="7.4" height="2.9"/>
<rect x="8" y="38" class="st0" width="7.4" height="2.9"/>
<rect x="18.2" y="7.8" class="st0" width="7.4" height="26.1"/>
<rect x="18.2" y="7.8" class="st0" width="7.4" height="26.1"/>
<rect x="18.2" y="38" class="st0" width="7.4" height="2.9"/>
<rect x="18.2" y="38" class="st0" width="7.4" height="2.9"/>
<rect x="28.4" y="0" class="st0" width="7.4" height="33.9"/>
<rect x="28.4" y="0" class="st0" width="7.4" height="33.9"/>
<rect x="28.4" y="38" class="st0" width="7.4" height="2.9"/>
<rect x="28.4" y="38" class="st0" width="7.4" height="2.9"/>
<rect x="15.7" y="20.8" class="st0" width="2" height="2.9"/>
<rect x="15.7" y="20.8" class="st0" width="2" height="2.9"/>
<rect x="26" y="20.8" class="st0" width="2" height="2.9"/>
<path class="st0" d="M5.6,37.5h32.5c1,0,2-0.3,2.8-0.8l4.3,4.3l2.4-2.4l-4.5-4.5c0.3-0.7,0.4-1.4,0.4-2.1v-5.8c0-3-2.4-5.4-5.4-5.4
	h-1.5v2.9h1.5c1.4,0,2.6,1.2,2.6,2.6V30v2.1c0,1.4-1.1,2.6-2.5,2.6H5.6c-1.4,0-2.6-1.2-2.6-2.6v-5.9c0-1.4,1.2-2.6,2.6-2.6h1.5v-2.9
	H5.6c-3,0-5.4,2.4-5.4,5.4v5.9C0.2,35.1,2.6,37.5,5.6,37.5z"/>
</svg>