<?xml version="1.0" encoding="utf-8"?>
<!-- Generator: Adobe Illustrator 21.1.0, SVG Export Plug-In . SVG Version: 6.00 Build 0)  -->
<svg version="1.1" id="Layer_1" xmlns="http://www.w3.org/2000/svg" xmlns:xlink="http://www.w3.org/1999/xlink" x="0px" y="0px"
	 viewBox="0 0 16.5 24" style="enable-background:new 0 0 16.5 24;" xml:space="preserve">
<title>Tutorials</title>
<path d="M8.2,0C9,0,9.7,0.1,10.4,0.3c2.8,0.8,5,3,5.8,5.8c0.2,0.7,0.3,1.5,0.3,2.2c0,1.1-0.2,2.2-0.6,3.1c-0.4,1-1.1,1.9-1.8,2.6
	c-0.6,0.6-1.1,1.3-1.5,2.1C12.1,17,12,17.9,12,18.8v3c0,0.3-0.1,0.6-0.2,0.9c-0.2,0.5-0.7,1-1.2,1.2C10.3,23.9,10,24,9.7,24h-3
	c-0.3,0-0.6-0.1-0.9-0.2c-0.5-0.2-1-0.7-1.2-1.2c-0.1-0.3-0.2-0.6-0.2-0.9v-3c0-0.9-0.2-1.8-0.5-2.6c-0.4-0.8-0.9-1.5-1.5-2.1
	c-0.8-0.8-1.4-1.7-1.8-2.6C0.2,10.4,0,9.3,0,8.2c0-0.7,0.1-1.5,0.3-2.2c0.8-2.8,3-5,5.8-5.8C6.7,0.1,7.5,0,8.2,0z M10.5,18
	c0.1-1,0.3-1.9,0.8-2.7c0.4-0.9,1-1.6,1.7-2.3c0.6-0.6,1.1-1.3,1.5-2.1C14.8,10,15,9.1,15,8.2c0-0.9-0.2-1.8-0.5-2.6
	c-0.7-1.6-2-2.9-3.6-3.6C9.2,1.3,7.3,1.3,5.6,2C4,2.7,2.7,4,2,5.6C1.7,6.5,1.5,7.4,1.5,8.3c0,0.9,0.2,1.8,0.5,2.6
	c0.4,0.8,0.9,1.5,1.5,2.1c0.7,0.7,1.2,1.4,1.7,2.3c0.4,0.9,0.7,1.8,0.8,2.7L10.5,18z M9.7,22.5c0.4,0,0.7-0.3,0.8-0.8v-2.2H6v2.3
	c0,0.4,0.3,0.7,0.8,0.8L9.7,22.5z"/>
</svg>
